<svg xmlns="http://www.w3.org/2000/svg" viewBox="30 40 390 370">
  <path id="facebook_line" class="main" style="    fill: none;
    stroke: white;
    stroke-linecap: round;
    stroke-linejoin: round;
    stroke-width: 11px;" d="M187.6 360.7c-2-37.2-1.5-34.9-3.5-72.1l-39.9.8c2.6-17.2 3.2-34.4 5.8-51.6 13.4-.5 30.4-.4 43.8.2-1.5-13.9-.8-24.9-.8-31.7.1-24.5-.7-54.8 22.8-69 18.6-11.3 53.7-6.5 79.9-7.2-1.1 18.7.1 28.2.7 45.5-55.2-11-47.3 38.5-48.8 56.8l51-1c-.4 34.2-.6 31.5 1.1 52.2-19.2-1.1-36.2 1.3-54.8.4-1.8 39.7-1.9 71.4-.1 111.1 1.2-.1 71.7-2.7 92.5-1.4 60.1 3.6 60.9-43.6 67.2-153.3 9.2-159.1-21.9-188.6-161.9-188.6-48.8 0-175.6-1.5-189.1 52.1C39.1 161 45.4 213 45.4 273.8c0 58.9 9.9 123.5 69.7 123.5 15 0 57.7 1.5 73.3.7"></path>
  <g id="facebook_scribble">
    <path class="scribble scribble1" d="M254.2 298.5s11.7-6.4 12.4-5.4-15 20.6-14.8 20.8 29.4-26.1 31.9-22.4-28.2 34.5-28.2 34.5c4.2 6.1 135.4-109.3 140.5-102S253.2 340.3 254.1 341.6c6.9 9.9 148.7-104.2 148.7-104.2 4.5 6.5-157.7 111-151 120.5 4.1 5.8 135.6-99.8 137.8-96.6L249.7 374c1.2 1.6 149.8-107.6 151-105.8 3.8 5.3-155.4 108.6-148.4 118.6l140.2-98.2c.3.4-123.6 96.3-123 97.1 6.7 9.5 118.5-79.4 118.5-79.4s-100.9 74.7-95.9 81.9c2.4 3.5 97.4-68.2 97.4-68.2s-75.2 65.8-74.5 66.8 66.8-57.9 72.1-50.5l-53 47.3c2.2 3.1 58.9-36.7 58.9-36.7 1.5 2.2-40.1 35.1-37.8 38.4" style="stroke-dashoffset: 2690.22; stroke-dasharray: 0px, 999999px; opacity: 0;"></path>
    <path class="scribble scribble2" d="M263 195.5c.3.4 19.2-12.8 19.2-12.8s-22.8 27.7-21.7 29.3c0 0 121.3-91.7 124.4-87.2 1.5 2.1-126.5 101.5-125.7 102.7L390.5 135c2.6 3.8-113.5 90.5-111.6 93.3 4.4 6.3 113.7-80.1 113.7-80.1 2 3-102.6 76.1-97.5 83.4 2.8 3.9 104.3-73.5 104.3-73.5 2.3 3.3-102.4 82.7-100.4 85.5 0 0 92.2-77.2 98.1-68.8s-95.9 81.9-95.9 81.9c6 8.4 98.2-68.8 98.2-68.8s-93.1 81.6-92 83.1c6.3 8.9 89.3-72.4 92-68.5" style="stroke-dashoffset: 1821.64; stroke-dasharray: 0px, 999999px; opacity: 0;"></path>
	<path class="scribble scribble3" d="M243.7 121.1s75.9-56.9 78.8-52.6c.4.5-62.6 51.7-62.6 51.7 4 5.7 76.7-49.5 77.9-47.8l-61.4 55.1 79-52.8s-59.5 46.2-56 51.3 62.7-45.8 63.6-44.6-60.8 53.6-59.1 56.1 61.2-45.1 62.2-43.6-66.3 55-62.4 60.5c2 2.8 77.4-56.3 77.4-56.3 5.2 7.4-88.2 68.9-84.7 73.9l87.7-61.4" style="stroke-dashoffset: 1164.8; stroke-dasharray: 0px, 999999px; opacity: 0;"></path>
    <path class="scribble scribble4" d="M62.6 88.7s7.2-7.1 8.2-5.7-12.4 23-12.3 23.2l56.6-37-61.4 55.9c.2.3 88.8-60.1 88.8-60.1l-85.6 71.7c1.9 2.6 107.6-72.2 107.6-72.2s-112.1 80.9-107.9 87c2.2 3.1 131.3-97.6 136.3-90.5.1.1-149.7 96.7-140.9 109.2 3.4 5 161-108.6 161-108.6S40.1 170.8 50.6 185.8c7 10 180.1-132.3 185.4-124.7 0 0-192.3 136.5-184.6 136.8S252.2 63.4 252.2 63.4C260.5 75.2 33 204.3 54.9 212L275 63c4.9 7-232 154.6-223.8 166.4 4.6 6.5 236.6-170.3 241.2-163.6 0 0-241.2 163.6-238.8 176.5 1.9 10 251.8-174.5 251.8-174.5S48.9 253.4 52.1 258c0 0 131.2-103.7 136.4-96.3 7.3 10.4-133.1 108.7-133.1 108.7 7.5 10.7 117.6-100.3 125.7-88.8 2.1 3.1-129.2 105.8-129.2 105.8S178.5 185.6 184.3 194L57.2 297.6c1.8 2.5 125.6-87.9 125.6-87.9 2.9 4.2-123.5 101.1-123.5 101.1s71.8-61.7 77.2-54c0 0-76 63.6-74 66.4 0 0 78.9-66.3 84.1-58.9 0 0-90.1 67.7-85.3 74.4 2.5 3.6 70.7-60.5 75.9-53.1l-70.7 64.1c1.2 1.7 78.5-64.9 83.2-58.2 0 0-85.3 69.4-82.9 72.8l98.7-69.3c5.2 7.5-84.7 74.1-84.7 74.1s91-75 96.2-67.5c1.1 1.5-91.1 78.4-91.1 78.4 1.7 2.4 93.5-66.2 93.9-65.7 5.2 7.5-82.4 72.4-82.4 72.4 5.1 7.3 83.6-58.6 83.6-58.6l-66.2 61.4c4.8 6.8 59.9-42.3 59.9-42.3s-36.6 37-34.3 40.3c.5.7 43.3-37.5 45.9-33.8s-29.6 37-29.6 37 22.7-23 25.3-19.3l-10 16.9c.8 1.1 12.8-8.2 12.8-8.2" style="stroke-dashoffset: 7447.03; stroke-dasharray: 0px, 999999px; opacity: 0;"></path>
  </g>
</svg>