<svg xmlns="http://www.w3.org/2000/svg" viewBox="30 40 390 370">
  <path class="main" style="
    fill: none;
    stroke: white;
    stroke-linecap: round;
    stroke-linejoin: round;
    stroke-width: 11px;" id="instagram_line" d="M142 56.9c38.8-1.8 60.3-1.5 91.4-.9C294.6 57.2 400 40.9 400 128.9c0 20.6 6.4 109.1 1 193-1.7 26.6-10.8 66.5-55.7 66.5-51 0-79.2 10.8-221.9 3.6 0 0-74.3 2.3-74.3-119.4 0-55.5-4.3-110.9-1-163.2 2.2-33.9 48.4-46.4 66.7-47.2m220 63.9c-3.9-2.6-20.6-6.4-22.8-2.3-7.6 14.4 12.8 15 15.4 6.3-.2-3.5-4.6-6-7.7-4.3m-174.3 93.4c-2.1 60.8 52.7 83.3 86.5 74.2 39.6-10.6 56.7-11.9 58.3-59.2 2.8-81.8-62.4-92.5-96.1-78-14.4 6.1-47 13.1-48.7 63z"></path>
  <g id="instgram_scribble">
    <path class="scribble scribble1" d="M322 106.6c2.4 3.4 39.1-31.3 40.9-28.7.4.6-20.5 30.3-20.5 30.3 2.4 3.4 36.9-22.8 36.9-22.8s-30.6 32.3-28.5 35.3c0 0 38.2-25.7 40.5-22.5" style="stroke-dashoffset: 224.802; stroke-dasharray: 0px, 999999px; opacity: 0;"></path>
    <path class="scribble scribble2" d="M210.4 141.2c8.2 11.7 103.8-89.2 110.9-79.1s-94 80.1-94 80.1 103.6-74 104.5-72.7L243 143c2.1 3 108.3-74.4 109.2-73.1 5.2 7.4-99.8 72.3-94.5 79.9l42.1-28c.3.4-37.9 35.2-35.4 38.8 1.3 1.8 31.1-27 33.5-23.5l-19.7 28.5s21.1-19.1 23.1-16.2c0 0-15.2 21.8-13.9 23.6 0 0 97.7-69.5 102.1-63.3 0 0-102.4 70-98.6 75.5 6.8 9.7 99.7-69 99.7-69s-97.1 80.6-96.1 81.9l105.3-73.7s-110 82.3-105.6 88.6l105.2-73.7-96.5 82.2 87.6-61.3-90.7 77.7c1.3 1.9 93.7-65.2 93.7-65.2l-94.6 89.1s95.7-73.2 102.4-63.6" style="stroke-dashoffset: 2611.56; stroke-dasharray: 0px, 999999px; opacity: 0;"></path>
    <path class="scribble scribble3" d="M60.5 101.7s43-40.8 47.2-34.8-52.3 53-52.3 53c3.3 4.7 73.8-53.4 73.8-53.4 1.6 2.3-72.1 66.9-72.1 66.9 5.6 7.9 93-74.5 97.7-67.9l-95 81.4C62.2 150.3 170.7 69 170.7 69l-110 91.2s126-96.4 130-90.6S55.9 178.2 55.9 178.2L218.8 64.6c.1.2-157.5 122.7-157.5 122.7 3 4.3 169.1-118.4 174.6-122.3-5.4 4.1-177.5 140.3-177.3 140.6L254.4 66.7C257.1 70.5 56 216 56 216L277.7 65c8.6 12.3-227.2 154.3-220.9 164.2S294.4 68 294.4 68L60 246.8s74.1-58.7 79.2-51.3c.5.7-80.3 66.7-80.3 66.7l76.1-54.8c1.7 2.4-79.2 63.7-75.5 69 0 0 70.3-53.7 74.3-48 0 0-79.1 67-78.7 67.5 1.7 2.4 84.8-70.4 89.3-64l-87 77.1s77.9-65.4 82.2-59.4c0 0-76.8 62.9-74.2 66.6s79.4-55.6 79.4-55.6l-80.9 73.5s81.4-63.3 83.3-60.5c4.6 6.6-75.9 70-75.9 70l87.8-63.7s-83.7 72.9-82.5 74.6c0 0 80.3-72 86.7-62.9 2.3 3.2-77.3 68.8-77.3 68.8s89.2-73.2 94.2-66-94.5 80.9-94.5 80.9c6.1 8.8 109.7-76.9 109.7-76.9l-97.6 83c1.7 2.4 121.1-84.8 121.1-84.8l-105 88.2s122.5-99 128.7-90.1c4.5 6.4-105.8 88.7-105.8 88.7 10 14.1 264.5-185.2 264.5-185.2L156.7 384.1l244-170.8c6.4 9.2-222.6 170.5-222.6 170.5 6.6 9.4 221.1-161.8 224.4-157.1 0 0-210.3 151.5-205.4 158.5 0 0 189.3-139.4 192.5-134.8 0 0-176.1 134.9-174.7 136.9l183.7-128.6c6.1 8.7-176.3 118.3-167 131.6 1.7 2.5 160.3-112.3 160.3-112.3 1.3 1.8-138.7 106.3-136.1 110 0 0 130.8-101.2 135.3-94.8 1.9 2.7-112.1 86-108.7 90.8 1 1.6 113.4-79.4 113.4-79.4 2.9 4.1-104.7 76.7-99.4 84.3 0 0 95.7-69.3 96.8-67.8 3.6 5.2-71.8 61.3-70.1 63.7 0 0 73.7-60 77.6-54.4 0 0-61.7 54.4-60.1 56.8l50.3-35.2" style="stroke-dashoffset: 10637.2; stroke-dasharray: 0px, 999999px; opacity: 0;"></path>
  </g>
</svg>