<svg id="Layer_1" data-name="Layer 1" xmlns="http://www.w3.org/2000/svg" viewBox="0 0 176 176"><title>øko-vektor</title><path d="M176,176H0V0H176ZM79.14,165.55v.35c8.64-.39,17.28-.71,25.92-1.21a39.53,39.53,0,0,0,6.86-1.24c55.29-13.16,80.24-75.92,49-123.42-2-3-1.91-5.05-.13-8,4.15-6.81,8-13.83,11.88-20.78,3.26-5.78,2.45-7.09-4.37-7.1-6.49,0-13,.21-19.47-.08-4.07-.18-6.45,1.43-8.35,4.88-5.53,10.06-11.11,20.1-17,29.92C120.5,43.73,121.06,47,125,51.13a48.33,48.33,0,0,1-2.74,70C109.7,132.29,95.07,136,78.64,132.48c-6.64-1.42-7.81-.95-11.23,5.07-3.53,6.22-7.11,12.41-10.52,18.7-3,5.57-1.12,9,5.26,9.25C67.81,165.73,73.47,165.55,79.14,165.55ZM98.65,4.18,98.46,2.8C86.16,4.44,73.39,4.5,61.64,8c-51.4,15.34-73,75.91-43.56,120.87,2.27,3.48,2.31,5.89.19,9.3-4.13,6.63-7.82,13.54-11.63,20.37-3,5.44-2.11,7,4.27,7s13-.11,19.49,0c4,.1,6.52-1.44,8.43-4.92,5.54-10.06,11.3-20,17-30,3.47-6.11,3.31-7-1.45-12.17-11-11.86-15.69-25.91-12.87-41.85C46.53,48,73.15,30.79,101.75,37.37c4.53,1,7.32-.13,9.48-4,3.77-6.86,7.82-13.56,11.53-20.45,2.71-5,.6-8.54-5.12-8.66C111.31,4.08,105,4.18,98.65,4.18ZM89.77,66.5c-9.6-6.6-14-6.34-22.78.9a9.58,9.58,0,0,1-4.07,1.45c-7.45,1.57-12.14,7.4-11.6,14.57s9.13,16.91,15.1,16.93c13.82,0,27.71-.72,41.47.26,9.42.68,14.11-4.23,18.13-11,5.21-8.74.56-18.67-9.39-20.73a9.67,9.67,0,0,1-4.1-1.41C103.51,60.17,98.89,59.86,89.77,66.5Zm26.83,37.58H62.51l.28,5.68H116.6ZM89.27,63.46c2.28-2.81,4.81-4.61,4.6-6-.29-1.84-2.69-3.36-4.19-5C88.21,54,85.8,55.32,85.55,57S87.41,60.44,89.27,63.46Z" style="fill:none"/><path d="M79,166c-5.66,0-11.19-.27-16.85-.5-6.38-.26-8.29-3.68-5.26-9.25,3.41-6.29,7-12.48,10.52-18.7,3.42-6,4.59-6.49,11.23-5.07,16.43,3.52,31.06-.19,43.63-11.35a48.33,48.33,0,0,0,2.74-70c-4-4.09-4.51-7.4-1.59-12.23,5.94-9.82,11.52-19.86,17-29.92,1.9-3.45,4.28-5.06,8.35-4.88,6.48.29,13,.07,19.47.08,6.82,0,7.63,1.32,4.37,7.1-3.92,7-7.73,14-11.88,20.78-1.78,2.92-1.85,5,.13,8,31.26,47.5,6.31,110.26-49,123.42a39.53,39.53,0,0,1-6.86,1.24c-8.64.5-17.43.92-26.07,1.31Z"/><path d="M102,4c6.33,0,9.31.08,15.64.21,5.72.12,7.83,3.61,5.12,8.66-3.71,6.89-7.76,13.59-11.53,20.45-2.16,3.92-5,5.09-9.48,4C73.15,30.79,46.53,48,41.48,76.67c-2.82,15.94,1.83,30,12.87,41.85,4.76,5.12,4.92,6.06,1.45,12.17-5.67,10-11.43,19.93-17,30-1.91,3.48-4.48,5-8.43,4.92-6.5-.16-13,0-19.49,0s-7.31-1.57-4.27-7c3.81-6.83,7.5-13.74,11.63-20.37,2.12-3.41,2.08-5.82-.19-9.3C-11.34,83.91,10.24,23.34,61.64,8,73.39,4.5,86,5,98,4Z"/><path d="M89.77,66.5c9.12-6.64,13.74-6.33,22.76,1a9.67,9.67,0,0,0,4.1,1.41c10,2.06,14.6,12,9.39,20.73-4,6.74-8.71,11.65-18.13,11-13.76-1-27.65-.23-41.47-.26-6,0-14.56-9.73-15.1-16.93s4.15-13,11.6-14.57A9.58,9.58,0,0,0,67,67.4C75.75,60.16,80.17,59.9,89.77,66.5Zm27.32,9.29L105.56,93.56c9.4,2.25,12.42-2,15.62-9.29C123,80.15,120.64,77.07,117.09,75.79Zm-54.55.38c-3.91,1.09-6.18,4.28-4.27,8.33,3.33,7,7.21,12.12,15.4,8.59ZM93.39,93.48l1.54.75L108.25,79c-3.58-.22-6.37,1-9.21,1.17-5.56.26-7.05,3.11-6.28,8C93,90,93.18,91.74,93.39,93.48Zm-8.75.79,1.8-.83c0-3.29.13-6.58-.08-9.86a3.3,3.3,0,0,0-1.78-2.43c-4.24-1.16-8.55-2-12.83-3l-.66.85Zm.79-19.41c-3.26-7.44-7.87-8.46-12.2-3.37Zm21.46-3.7c-6.22-4.63-10.78-3.3-13.49,4Z"/><path d="M116.6,104.08v5.68H62.79l-.28-5.68Z"/><path d="M89.27,63.46c-1.86-3-4-4.91-3.72-6.45s2.66-3,4.13-4.54c1.5,1.65,3.9,3.17,4.19,5C94.08,58.85,91.55,60.65,89.27,63.46Z"/><path d="M117.09,75.79c3.55,1.28,5.92,4.36,4.09,8.48-3.2,7.24-6.22,11.54-15.62,9.29Z" style="fill: none"/><path d="M62.54,76.17,73.67,93.09c-8.19,3.53-12.07-1.54-15.4-8.59C56.36,80.45,58.63,77.26,62.54,76.17Z" style="fill:none"/><path d="M93.39,93.48c-.21-1.74-.35-3.49-.63-5.23-.77-4.93.72-7.78,6.28-8,2.84-.13,5.63-1.39,9.21-1.17L94.93,94.23Z" style="fill:none"/><path d="M84.64,94.27,71.09,79l.66-.85c4.28,1,8.59,1.84,12.83,3a3.3,3.3,0,0,1,1.78,2.43c.21,3.28.08,6.57.08,9.86Z" style="fill:none"/><path d="M85.43,74.86l-12.2-3.37C77.56,66.4,82.17,67.42,85.43,74.86Z" style="fill:none"/><path d="M106.89,71.16l-13.49,4C96.11,67.86,100.67,66.53,106.89,71.16Z" style="fill:none"/></svg>