<svg id="Layer_1" data-name="Layer 1" xmlns="http://www.w3.org/2000/svg" viewBox="0 0 42.05 35.97"><defs><style>.cls-1{fill:#303031;}</style></defs><title>paradis-klokke</title><g id="dinner"><path id="Path_50" data-name="Path 50" class="cls-1" d="M0,26a1.38,1.38,0,0,0,1.4,1.37h39.2A1.38,1.38,0,0,0,42,26h0A20.7,20.7,0,0,0,24.78,5.79a4.06,4.06,0,0,0,.38-1.71,4.19,4.19,0,0,0-8.38,0,4.06,4.06,0,0,0,.38,1.71A20.63,20.63,0,0,0,0,26ZM19.58,4.08A1.4,1.4,0,1,1,22.38,4,1.41,1.41,0,0,1,21,5.45h0A1.39,1.39,0,0,1,19.58,4.08ZM21,8.18a18.11,18.11,0,0,1,18.2,16.43H2.87A18,18,0,0,1,21,8.18Z"/><path id="Path_51" data-name="Path 51" class="cls-1" d="M40.63,33.21H1.42A1.38,1.38,0,1,0,1.35,36H40.63a1.38,1.38,0,1,0,.08-2.76Z"/></g></svg>