<svg id="Layer_1" data-name="Layer 1" xmlns="http://www.w3.org/2000/svg" viewBox="0 0 42 38"><defs><style>.cls-1{fill:#303031;}</style></defs><title>paradis-butik</title><g id="Find_butik" data-name="Find butik"><g id="Group_6" data-name="Group 6"><path id="Path_45" data-name="Path 45" class="cls-1" d="M29.78,21.63h-5.2A2.58,2.58,0,0,0,22,24.21v4a2.58,2.58,0,0,0,2.59,2.58h5.2a2.58,2.58,0,0,0,2.59-2.58v-4A2.58,2.58,0,0,0,29.78,21.63Zm.7,6.57a.7.7,0,0,1-.7.7h-5.2a.7.7,0,0,1-.7-.7v-4a.7.7,0,0,1,.7-.7h5.2a.7.7,0,0,1,.7.7Z"/><path id="Path_46" data-name="Path 46" class="cls-1" d="M42,12.45a1.08,1.08,0,0,0-.14-.53L35.61.53A1,1,0,0,0,34.72,0H7.27a1,1,0,0,0-.89.53L.14,11.92a1.1,1.1,0,0,0-.14.53,6.25,6.25,0,0,0,3.6,5.7V36.93a1.06,1.06,0,0,0,1,1.07H37.36a1.05,1.05,0,0,0,1-1.07V18.29s0-.08,0-.11A6.3,6.3,0,0,0,42,12.45ZM7.87,2.13H34.12L39,11H3Zm22,11a3.94,3.94,0,0,1-7.8,0Zm-10,0a3.94,3.94,0,0,1-7.8,0Zm-17.78,0h7.8a3.94,3.94,0,0,1-7.8,0ZM17.3,35.86H11.38V24.35a1.5,1.5,0,0,1,1.47-1.53h3a1.5,1.5,0,0,1,1.47,1.53V35.86Zm19,0h-17V24.35a3.6,3.6,0,0,0-3.53-3.66h-3a3.6,3.6,0,0,0-3.53,3.66V35.88H5.66V18.68H6a6,6,0,0,0,5-2.76,5.9,5.9,0,0,0,8.13,1.85A5.84,5.84,0,0,0,21,15.92a5.88,5.88,0,0,0,10,0,6,6,0,0,0,5,2.76h.35ZM36,16.55a4,4,0,0,1-3.89-3.38h7.8A4,4,0,0,1,36,16.55Z"/></g></g></svg>