<?xml version="1.0" encoding="utf-8"?>
<!-- Generator: Adobe Illustrator 23.0.6, SVG Export Plug-In . SVG Version: 6.00 Build 0)  -->
<svg version="1.1" id="Lag_1" xmlns="http://www.w3.org/2000/svg" xmlns:xlink="http://www.w3.org/1999/xlink" x="0px" y="0px"
	 viewBox="0 0 439.2 109.8" style="enable-background:new 0 0 439.2 109.8;" xml:space="preserve">
<style type="text/css">
	.st0{fill:#F9B500;}
	.st1{fill:#0D0802;}
	.st2{fill:#62B9E9;}
</style>
<path class="st0" d="M7.4,31.5c0-3.1,1.3-4.4,3.7-4.4s9.1,0.3,10.2,0.9s2.4,1.5,2.4,3.7c0,2.2-1.4,29.3-1.2,33
	c0.2,3.7,0.7,35.4,0.9,36.9s1,3.9-1.1,4.3s-15.9,0.7-17.5,0.2s-0.7-4.1-0.7-6.3S6,70.5,6.2,59.9S7.4,31.5,7.4,31.5"/>
<path class="st1" d="M3.8,109.8c-1.6-0.4-2.9-1.6-3.4-3.1c-0.7-2-0.5-1.4,0.8-23.9c0.5-8.3,1-17.8,1.1-23
	c0.3-10.4,1.2-27.4,1.2-28.5c0.1-5.1,3.3-8.1,7.6-8c8.8,0,12.5,0.5,14.9,3.7s1.5,4.2,0.9,19.1c-0.3,6.8-0.6,14.3-0.6,17.4v1
	c0.3,3.7,0.7,33.8,1,36.6s0.7,3.9-0.6,6.1c-0.8,1.3-2.2,2.2-3.7,2.5 M19.7,103.6c-0.3-2.4-0.7-34.9-1-38.7c-0.3-3.8,0.4-16.2,0.6-20
	C20,30.2,19.9,30,19.9,30.1L11,29.5c-1,0-1.5,37.9-2.5,54.5c-1.7,28.7-0.8,16.5-1.2,20"/>
<path class="st0" d="M34.5,30.6c0-1.1,1.8-1.5,3.9-1.5s25.7,6.7,26.4,25.8c0.8,21.5-24.7,28.6-28.9,26.7c-1-0.5-1.9-1.1-1.9-5.4
	l0.5-46.5"/>
<path class="st1" d="M33.8,85.1c-1.4-0.7-2.5-1.8-3.1-3.2c-1.2-2.7-1.2-2.4-0.5-51.3c0-1.3,0.6-2.6,1.6-3.5c5.1-4.7,16.5,0.9,22,4.5
	C73,44,72.1,66.7,56.9,78.2C48.8,84.4,38,86.9,33.8,85.1 M37.5,78.2c11.3-1,23-9.4,23-22v-0.9c-0.7-19.1-28.7-23.6-22.6-22.1"/>
<path class="st0" d="M108.9,30.4c0-1.3-0.7-1.5-3.3-1.5S80.5,30,77.4,54.1c-1.4,10.8,10.7,21.5,16.1,24c4,2,8.2,3.3,12.6,3.9
	c0.9,0,1.8-0.2,1.8-2.3L108.9,30.4"/>
<path class="st1" d="M103.9,85.6c-19.6-3.9-30.2-19.1-30.3-29.8c0.5-17.3,14.9-31,32.2-30.7c2.6,0,5.2,0.1,6.5,2.7
	c0.4,0.8,0.6,1.8,0.6,2.7L112,79.7c0.1,1.8-0.6,3.5-1.8,4.8C108.2,86.3,106.2,86,103.9,85.6 M93.5,35.9c-5.5,2.9-10.8,7.8-12.3,18.7
	c-0.6,4.6,2.2,9.3,5.2,12.8c5.1,6.1,10,8.5,17.7,10.4l0.9-45.1C101,33,97.1,34.1,93.5,35.9"/>
<path class="st0" d="M118.9,31.3c0-2.6,2.1-4.7,4.7-4.8c12.2,0,12.6-2,12.6,8.3c0,2.8,0.2,32.5,0.4,37.5s0.7,10.2-6.2,10.2
	s-13.1,2.2-12.4-8.3C119.4,53.5,118.8,53.4,118.9,31.3z"/>
<path class="st1" d="M117.2,84.5c-5.5-4.6-2.3-10.8-2.3-33.7c0.6-18-1.4-21.1,2.1-25.3c1.6-1.9,4-2.9,6.5-2.9c2.1,0,6.8-0.4,9.9,0
	c6.5,1,6.5,5.5,6.5,12.1c0,43.1,1.9,43.3-1.2,47.9c-1.8,2.6-5,3.9-8.5,3.8C126.7,86.3,120.9,87.5,117.2,84.5 M130.9,79.7
	c4.2-0.1,2,2.8,2-45.8c0.1-1.6,0-3.2-0.1-4.8c-2.4-0.2-6.4,0.2-9,0.2c-0.4,0-0.4,0-0.6,0.2s0.8,15.2-1.3,45.9c0,1-0.1,3.5,0.4,4.1
	C122.8,80.1,127.2,79.7,130.9,79.7"/>
<path class="st0" d="M154.6,30.4c0.1-1.9,1.6-3.4,3.5-3.5c3.3,0,6.7,0.2,10,0.7c1.7,0.2,3.8,1.5,3.5,6.5s-0.7,30.2-0.2,37.1
	s2.1,11.7-2.8,12.2s-12.8-0.3-14.9-1.4c-2.1-1.1-2.4-2.3-2.1-5.6c0.3-3.3,2.5-17.6,2.3-26.5S154.6,30.4,154.6,30.4"/>
<path class="st1" d="M157.9,86.9c-7.7-1.1-10.8-3.1-10.2-10.8c0.3-3.4,2.6-18,2.4-26.1c-0.1-6.6,0.1-13.3,0.7-19.9
	c0.2-3.7,3.1-7.1,8.4-7.1c3.2,0.1,7.9,0.6,9.4,0.8c3.9,0.4,7.2,3.8,6.9,10.5s-0.7,30.4-0.3,36.6s3,15.7-6.3,16.3
	C165.2,87.5,161.5,87.4,157.9,86.9 M155.6,77.8c4.1,0.8,8.4,1.1,12.6,0.8c0.2-2.6-0.9-3-0.9-18.9c0-24.7,0.9-27.9,0.2-29.3
	s-7.3-0.7-9.1-0.6c-0.6,6.8-0.8,13.7-0.6,20.5c-0.1,11.7-3.1,27-2.4,27.4L155.6,77.8"/>
<path class="st0" d="M185.8,53.4c-2.6-1.7-9.3-12.4-0.9-21s20.3-3.1,21.2-2s2.1,2.6,0.7,4.1S187.7,54.7,185.8,53.4"/>
<path class="st1" d="M183.7,56.6c-1.9-1.4-3.4-3.3-4.4-5.5c-3.8-7.3-3-15.4,2.8-21.4c8.4-8.7,28.7-7.2,29.2,3.3c0,1.5-0.6,3-1.7,4.1
	c-6.1,6.7-12.7,13-19.8,18.8C187.6,57.1,185.8,58,183.7,56.6 M186.7,49.1c4.2-3.3,12.6-11.8,16.2-15.6l-1.2-0.5
	C189,29.1,180.5,39.5,186.7,49.1z"/>
<path class="st0" d="M242.1,31.9c-0.1-1.3-0.9-3.3-4.5-3s-24.9,6.5-25.4,25.1s16.1,26.5,20.3,27.6c9.8,2.5,8.7,1.2,8.7-2
	S242.3,35.4,242.1,31.9"/>
<path class="st1" d="M218.1,77.8c-12.2-11.4-13.4-30.7-1.3-42.2c5.7-5.5,21.2-14.3,27.1-7.9c2.1,2.1,2,4.4,2,6.4s-0.8,47.8-1.2,49.2
	C242.9,92.1,225.2,84.4,218.1,77.8z M233.2,34.3c-20.9,7.6-21.5,27.1-10.1,38c3.8,3.7,8.7,6.1,13.9,6.9c0.2-8.9,0.9-35.9,0.9-46
	C236.3,33.4,234.7,33.7,233.2,34.3"/>
<path class="st0" d="M252.5,32.5c0-2.1,0.4-5.4,3.9-5.2C267.7,28,269,25.4,269,43.8c0,4.4,1.2,30,1.2,33.6c0,3.6-1.9,4.8-4,5.3
	S255.7,84,253.6,82s-1.6-3-1.6-5.6l0.5-44.7"/>
<path class="st1" d="M253.4,86.8c-7.8-1.7-5-5.4-5-54.3c0.2-6.7,4-9.4,8.1-9s11.8-0.7,14.4,4.5c1,2.5,1.5,5.2,1.6,7.9l1.3,41.6
	c0.1,4.6-2.3,7.9-7,8.9C265.1,86.8,257.4,87.5,253.4,86.8 M257,31.7v0.9c-0.2,0-2.6,42-2.5,45.8c0,0.3,0,0.4,0.5,0.4v0.3
	c-3.3,0.4,10.3,0.5,11.6-0.4c1.3-0.9-0.9-27.7-0.9-34.9c0-2.8,0-9.4-0.9-12.1c-1.5-0.6-5.5-0.4-7.9-0.5c-0.1,0.4-0.1,0.9-0.1,1.3"/>
<path class="st0" d="M283.4,54.7c-0.7-11.5,9.6-21.7,15.7-24.8s13-3.2,13.7-3s1.2,2,1.2,4.3l0.7,48.9c0,2-2.1,3-5.4,2.4
	C306,81.9,284.8,76.5,283.4,54.7"/>
<path class="st1" d="M308.7,86.2c-17.5-3.5-29-17.3-29-32.6c1.3-17,15.3-30.3,32.4-30.6c4.7,0.3,5.9,3.5,5.9,8.2l0.7,48.9
	C318.8,84,315,87.4,308.7,86.2 M298.5,73.4c4.3,3,10.1,5.1,13,5.4l-0.7-48c-3.3,0.3-6.4,1.2-9.4,2.6c-6.8,3.3-14.2,13.3-13.5,21
	C288.2,55.2,287.6,65.6,298.5,73.4"/>
<path class="st0" d="M324.5,9.8c0-2.6,0.9-5.6,4-5.6s10.4-0.9,11.4,0.4s0.7,3,0.7,5.4s2.1,35,2.3,44.1s1.9,21.9,2.1,24.1
	s-0.5,3.9-2.5,4.3c-2,0.4-11.3,0.2-13.8-0.9c-6.1-2.6-2.6-8.3-4-55.1C324.5,18.3,324.5,9.8,324.5,9.8"/>
<path class="st1" d="M332.6,86.3c-4.4-0.5-8.6-1.3-10.4-5.8c-1-2.2-1.2-4.7-1.2-8.2c0-53.1-0.5-47.7-0.5-62.5
	c0.1-6.3,3.7-9.6,7.8-9.5c1.4,0,4.7-0.3,7.5-0.3c7.9,0.2,8.5,3,8.5,10l1.1,19.3c2.1,35.9,0.7,25.6,3.3,48.5c0.4,4.8-2.1,7.8-5.6,8.5
	C339.6,86.6,336.1,86.6,332.6,86.3 M341.4,78.8c-0.1-0.8-1.9-14.4-2.2-24.6l-2.3-46.5c-2.3-0.1-5.8,0.3-8.1,0.3
	c-0.6,1.3-0.1,17-0.1,18.4c0.8,27.2-0.5,48.4,0.8,51c0.3,0.5,0,0.3,0.8,0.7S339.3,79,341.4,78.8z"/>
<path class="st2" d="M407.1,21.3c5.8-3.9,16.4-2.5,20.3-0.6s8.1,4.4,8,6.1s-9.5,7.8-15.7,12.7s-12.8,11.1-14,11.9s-3.5,0.9-5-2.4
	S394,30,407.1,21.3"/>
<path class="st1" d="M397.2,50.6c-4.8-10.8-3.7-25,7.8-32.5c6.5-4.2,17.8-3.7,24-0.9s9.9,5.1,10.2,9.2v0.5c-0.1,1.2-0.5,2.3-1.3,3.2
	l-30.1,24.4C404,57.2,399.1,55.1,397.2,50.6 M409.2,24.5c-4.5,2.9-7.1,8-6.9,13.4c0,3.3,0.7,6.6,2,9.7c2.1-1.8,7.5-6.7,13-11.1
	c2.9-2.3,6.2-4.7,9.1-6.8s2.9-2.1,3.9-3c-1.5-0.9-3-1.8-4.6-2.5C422.2,22.3,413,21.9,409.2,24.5"/>
<path class="st2" d="M427.7,47.2c0.8,0.8,11,16.9-0.9,29.8c-11.9,12.9-32.7-1.8-32.3-2.9C394.9,73,427,46.4,427.7,47.2"/>
<path class="st1" d="M413.9,85.7c-7.1-0.3-13.9-2.8-19.5-7.2c-2-1.6-3.6-2.8-3.7-5.2s0.5-2.8,13.9-13.9c21-17.5,21.5-16.9,23.1-17
	c1,0.1,1.9,0.5,2.7,1.1c1.5,1.9,2.7,4,3.5,6.2c1.6,3.8,2.4,7.9,2.5,12c0.1,12.2-9.5,24-22.4,24H413.9z M402.3,75.5
	c18.8,10.7,31.6-6.2,24.1-22.9c-8.9,7-17.7,14.1-26.3,21.5L402.3,75.5"/>
<path class="st2" d="M367.2,39.3c0.7,0.5,3.3-1.3,4-2.4s11.4-11.9,12.3-12.6s1.7-2.6-1.6-4.3s-12.8-3.5-17,1.3
	S361.4,35.2,367.2,39.3"/>
<path class="st1" d="M365,41.7V42c-4.8-3.4-7.5-9.1-7.1-15c0.2-3.2,1.5-6.3,3.7-8.7c5.1-5.6,16.1-5.3,22.2-2.1s5.6,8.2,2.2,10.7
	c-4,3.8-7.9,7.7-11.6,11.8c-2.2,2.9-6.4,5.4-9.4,3.3 M367.8,23.9c-3.9,4.4-0.2,11.6,0.2,11s9.6-10.2,11.3-11.7
	C376.2,22,369.8,21.4,367.8,23.9"/>
<path class="st2" d="M363.5,51.3c-0.7-4.7,13.2-3.2,14.2,0.8c0.5,2,1.6,26.6,1.6,28c0,1.4-1.6,3.1-6.3,3.1s-10.7-0.2-11.2-2.1
	C361.3,79.2,363.5,51.3,363.5,51.3"/>
<path class="st1" d="M367.3,86.8c-3.3-0.3-10.1-1.7-10.9-4.9c-0.8-3.2,3.3-28.1,3.3-30.8c0.1-6.8,9.8-8,16.9-4.9
	c5.2,2.5,4.9,5,5.3,10.7s1.2,20.7,1.2,23.2c0,4.7-4.9,6.9-10.1,6.9C371.1,87,369.2,87,367.3,86.8 M375.5,79.1
	c-0.1-4.4-0.9-21.2-1.4-25.7c-2.1-1.1-4.5-1.5-6.9-1.2c-0.4,5.6-1.6,21.2-1.7,26.8l0.9,0.2C367.9,79.4,373.7,79.8,375.5,79.1"/>
</svg>
