<svg id="Layer_1" data-name="Layer 1" xmlns="http://www.w3.org/2000/svg" viewBox="0 0 44.51 40.5"><defs><style>.cls-1,.cls-2{fill:none;stroke:#303031;stroke-linejoin:round;stroke-width:2.5px;}.cls-1{stroke-linecap:round;}.cls-3{fill:#303031;}</style></defs><title>paradis-kop</title><g id="Produkter"><path id="Path_38" data-name="Path 38" class="cls-1" d="M37.45,21.94,34.79,39.25h-28L4.15,21.94"/><line id="Line_15" data-name="Line 15" class="cls-1" x1="1.25" y1="22.4" x2="40.41" y2="22.4"/><path id="Path_39" data-name="Path 39" class="cls-2" d="M4.51,22.57A9.23,9.23,0,0,1,9.4,10.49a9.35,9.35,0,0,1,3.8-.72c6.38,0,11.56,5.6,8.6,12.85"/><path id="Path_40" data-name="Path 40" class="cls-2" d="M30.16,9.2C28.37-1.58,11.93-1.51,11.6,10.11"/><path id="Path_41" data-name="Path 41" class="cls-1" d="M35.66,12.88A9.93,9.93,0,0,1,37.05,22"/><path id="Path_42" data-name="Path 42" class="cls-1" d="M26.45,13.27c1.66.64,4.72,2.24,5.47,5.43"/><path id="Path_43" data-name="Path 43" class="cls-2" d="M28.08,14.49S38.55,3.93,39.56,3a2.1,2.1,0,1,1,3.19,2.72,1.45,1.45,0,0,1-.21.22L31.09,17.31"/><circle id="Ellipse_7" data-name="Ellipse 7" class="cls-3" cx="7.83" cy="17.57" r="0.93"/><circle id="Ellipse_8" data-name="Ellipse 8" class="cls-3" cx="11.02" cy="18.65" r="0.93"/><path id="Path_44" data-name="Path 44" class="cls-2" d="M20.13,12.77c.73-1.56,6.14-6.71,11.67-2.88"/></g></svg>