<svg id="Layer_1" data-name="Layer 1" xmlns="http://www.w3.org/2000/svg" viewBox="0 0 42 37.99"><defs><style>.cls-1{fill:#303031;}</style></defs><title>paradis-vogn</title><g id="bestilling"><path id="Path_52" data-name="Path 52" class="cls-1" d="M13.53,25.66H35.85A1.24,1.24,0,0,0,37,24.73L42,6.77a1.3,1.3,0,0,0-.2-1.13,1.19,1.19,0,0,0-1-.51H10.69L9.81,1a1.24,1.24,0,0,0-1.2-1H1.23A1.27,1.27,0,0,0,0,1.28,1.27,1.27,0,0,0,1.23,2.57h6.4l4.44,20.84a3.84,3.84,0,0,0-2.22,3.53,3.77,3.77,0,0,0,3.69,3.85H35.85a1.28,1.28,0,0,0,0-2.56H13.54a1.29,1.29,0,0,1,0-2.57Zm25.61-18L34.92,23.1H14.52L11.24,7.7Z"/><path id="Path_53" data-name="Path 53" class="cls-1" d="M12.37,34.39a3.6,3.6,0,1,0,3.6-3.6A3.6,3.6,0,0,0,12.37,34.39Zm3.6-1.2a1.2,1.2,0,1,1-1.2,1.2,1.2,1.2,0,0,1,1.2-1.2Z"/><path id="Path_54" data-name="Path 54" class="cls-1" d="M30,34.39a3.6,3.6,0,1,0,3.6-3.6A3.6,3.6,0,0,0,30,34.39Zm3.6-1.2a1.2,1.2,0,1,1-1.2,1.2,1.2,1.2,0,0,1,1.2-1.2Z"/></g></svg>