<svg xmlns="http://www.w3.org/2000/svg" viewBox="0 0 114.04 59.03"><title>scroll for mere hvid</title><g id="Layer_1" data-name="Layer 1"><path d="M70.5,33s8,6,11,20" style="fill:none;stroke:#fff;stroke-linecap:round;stroke-miterlimit:10"/><path d="M76.5,54.25a15,15,0,0,1,5.72,4.28S83.5,56,85.5,52" style="fill:none;stroke:#fff;stroke-linecap:round;stroke-linejoin:round"/></g><g id="Layer_2" data-name="Layer 2"><path d="M2.13,30.37a.32.32,0,0,1,.14,0,.25.25,0,0,1,.14-.08,2.39,2.39,0,0,1,1.4.32A7.34,7.34,0,0,1,5.24,32.3c.12.4,0,.67-.47.83l-.53-.19a8.36,8.36,0,0,0-.93-1.29,1,1,0,0,0-1.11-.36,1.46,1.46,0,0,0-1.09,1.55c0,.47,0,.71,0,.72a0,0,0,0,0,.06,0l0,.29,0,.08.52.77A9.16,9.16,0,0,0,3,35.92a15.87,15.87,0,0,1,2.69,1.51A5.7,5.7,0,0,1,7.6,39.84a1.08,1.08,0,0,0,.19.34c.21.84.36,1.38.43,1.63a1.18,1.18,0,0,1,0,.48l.06.05a4.45,4.45,0,0,1-.45,2.31A3.58,3.58,0,0,1,6.13,46v0L6,46l-.27.08A3.13,3.13,0,0,1,4.48,46c-1.15-.65-1.82-1.3-2-1.93l0-.06a0,0,0,0,1,0-.06l-.17-.25a2.06,2.06,0,0,0,.05-.7.76.76,0,0,1,.47-.43c.24-.07.42.09.53.48h0a.49.49,0,0,1,.08.12v.16l.08.11,0,.08A3.34,3.34,0,0,0,5,45,1.07,1.07,0,0,0,6,45H6a0,0,0,0,1,.06,0,2,2,0,0,0,1.07-1.11,4.34,4.34,0,0,0,0-1.89l.06-.11-.06-.07a.28.28,0,0,1,0-.12L7,41.51a.37.37,0,0,1,0-.18l-.06,0a1.68,1.68,0,0,0,0-.29l-.07-.07a.3.3,0,0,0,0-.12,2.65,2.65,0,0,0-.36-.67,0,0,0,0,1,0-.06A5.7,5.7,0,0,0,6,39.26a1.23,1.23,0,0,0,0-.13l-.75-.7a18.93,18.93,0,0,0-2.84-1.8A3.34,3.34,0,0,1,.75,35.22c-.07,0-.25-.28-.56-.9h0l-.06-.05a.54.54,0,0,1,0-.28c-.06,0-.09,0-.11,0l0-.17a.05.05,0,0,1,0-.05l-.06,0a.19.19,0,0,1,.07-.16l0-.06c0-.37,0-.56,0-.58s0,0,0,0a.92.92,0,0,1,0-.3.06.06,0,0,1-.08-.05l0,0a2.66,2.66,0,0,0,.21-.7A2.91,2.91,0,0,1,2.13,30.37Z" style="fill:#fff"/><path d="M8.55,28.38l.19-.05c1.08-.32,1.76-.22,2,.3h0l.05.08q0,.09-.27.33l0,0-.07.07a4,4,0,0,0-1,.05l-.18.08v0l-.08,0s0,0-.05,0a2.34,2.34,0,0,0-1,1.64,4.87,4.87,0,0,0,0,1.27l.06.07a6.28,6.28,0,0,0,.15,1,.39.39,0,0,0,.08.11l.26,1.23.07.07,0,.1a.5.5,0,0,0,.1.18c.07.34.14.62.2.83l.23.78a.25.25,0,0,0,.08.14.28.28,0,0,0,0,.18l0,.15c.06.21.16.48.28.81v.1l.41.79h0q.12.2.39.78l0,.1a.59.59,0,0,1,.15.21h0a9.09,9.09,0,0,0,.4.82v.07a4.91,4.91,0,0,0,1.36,1.78c.32.19.54.26.66.22a2.67,2.67,0,0,0,1.6-1.43l.22-.11c.35-.05.57,0,.65.32,0,0,0,0,.05,0l0,.11-.61,1c-.06,0-.12.09-.19.22a4.83,4.83,0,0,1-1.36.69l-.27.08a0,0,0,0,1-.06,0l-.07.07c-.63.19-1.43-.33-2.4-1.55l-.59-1a0,0,0,0,1,0-.06l-.34-.61h0l-.07-.07,0-.09s0,0,0,0a1.84,1.84,0,0,1-.21-.42h0a2.82,2.82,0,0,1-.22-.44l0,0a8.27,8.27,0,0,1-.4-.82h0l-.12-.17s0,0,0-.05a3.06,3.06,0,0,1-.25-.53h0s0,0,0,0v-.2l0-.06-.11-.2.05,0-.06,0-.12-.4s0,0,0,0l-.06,0a0,0,0,0,1,0-.06L8,36.13c0-.24,0-.36,0-.37l-.06-.07L7.71,35s0-.05,0-.05a.49.49,0,0,1-.08-.12l0-.07a.51.51,0,0,1-.09-.16s0,0,0,0l-.06-.06a7.72,7.72,0,0,1-.32-4.39,2.4,2.4,0,0,1,.7-1.15C7.92,28.82,8.12,28.65,8.55,28.38Z" style="fill:#fff"/><path d="M13,27.18a4.74,4.74,0,0,1,2.28-.07v0l.08-.05a3.19,3.19,0,0,0,.82.38,5.06,5.06,0,0,1,1.09,1.06,5.39,5.39,0,0,1,1.17,1.9.26.26,0,0,0,0,.12l.1,0s0,0,0,.05c.1.25.17.44.21.58l0,.06a2.76,2.76,0,0,1-.43,2.86s0,0-.05,0-.22.33-.72.75c0,.06-.12.17-.41.33v0c-.08,0-.11.09-.1.12a19.23,19.23,0,0,1,2.41,2,31.2,31.2,0,0,1,2.86,2.4,1.38,1.38,0,0,0,.34.4l0,.09s0,0,0,0l.06.05c0,.19-.21.34-.56.44h0c-.24.07-.59-.2-1-.82-.05,0-.27-.19-.68-.6S18.75,38,17.12,36.56c-.36-.23-.55-.34-.56-.34l0,.1a3.65,3.65,0,0,1,.17.41.37.37,0,0,1,0,.14l.11.22.12.42a.3.3,0,0,1,0,.16l.06.07,0,.1a.24.24,0,0,1,.09.13A0,0,0,0,1,17,38l.07.07,0,.11s0,0,0,0,0,0,.05,0l0,.2c.22.89.39,1.53.51,1.94l.1.18s0,0,0,0l.39.87a.52.52,0,0,1-.1.35l-.21.06q0,.14,0,.15c0-.07-.09-.1-.2-.08l-.08.07c-.19.06-.36-.1-.5-.47l0-.1A.39.39,0,0,1,17,41.4a0,0,0,0,1,0-.06l-.21-.4s0,0,0,0l-.18-.45-.17-.59a0,0,0,0,1,0-.06l-.06,0v0a0,0,0,0,1,0-.06l-.07-.07,0-.1a0,0,0,0,1,0-.06,0,0,0,0,0-.06,0l0-.29-.16-.55,0-.24a.37.37,0,0,1-.1-.18q0-.16,0-.18l-.12-.24-.28-1a4,4,0,0,1-.11-.56.22.22,0,0,1-.08-.1l0-.09-.07-.07,0-.08a.39.39,0,0,1-.08-.11l0,0-.07-.07-.3-1s0,0,0,0L15,34.49l0-.1a.18.18,0,0,1-.07-.09h0l-.07-.07v0s0,0,0-.05l-.07-.07-.3-1a.35.35,0,0,0-.09-.16l0-.09a1.61,1.61,0,0,0-.24-.51.37.37,0,0,0,0-.18l-.09-.18h0L14,31.55l0-.08a2.28,2.28,0,0,0-.27-.61l0-.09s0,0-.05,0a.17.17,0,0,1,0-.12,5.24,5.24,0,0,0-.25-.62v-.07a6.38,6.38,0,0,0-.27-.7.15.15,0,0,0,0-.11l-.2-.38h0a.26.26,0,0,1-.07-.1l0-.09a1.22,1.22,0,0,1-.19-.34h0l-.06-.05-.13-.44a.69.69,0,0,1,.31-.51Zm1,.78c0,.05,0,.08,0,.09l.06.05,0,.13s0,.05,0,.05l.06.06,0,0a0,0,0,0,1,0,.05l.06.07.11.38a.28.28,0,0,0,.1.16.22.22,0,0,0,0,.16l.11.22a.06.06,0,0,1,0,.06l.09.17.13.45.08.18h0l0,.08s0,0,0,0l0,.06s0,.05,0,.05l.07.18c.15.53.38,1.19.67,2,0,0,0,0,0,.05l.1.18.14.46a3.83,3.83,0,0,0,.2.54.35.35,0,0,0,0,.2l.07.07,0,.1a.18.18,0,0,0,.07.09l0,.25,0,.08a3.28,3.28,0,0,0,1.25-1,2,2,0,0,0,.58-1.32,0,0,0,0,1-.06,0c.09,0,.06-.26-.08-.73l-.08-.27a.87.87,0,0,0-.2-.4v-.1c-.62-1.25-1-1.85-1.21-1.8A2.51,2.51,0,0,0,14.65,28Z" style="fill:#fff"/><path d="M22.65,24.66l.47-.14c.12.11.54.11,1.26,0a1.55,1.55,0,0,1,1.13.81c.09,0,.23.1.42.39a5.18,5.18,0,0,1,1,1.88h0l0,.05s0,0,0,0l0,.08v.09s.07,0,.08,0A0,0,0,0,1,27,28l.1.18.09.31a0,0,0,0,1,0,.06l.07.07.09.3a2.71,2.71,0,0,0,.28.65s0,0,0,.05l.1.18.12.42a.35.35,0,0,0,.09.16l0,.07s0,0,.05,0l0,.29.37,1.29a.49.49,0,0,0,.1.16c0,.19,0,.29,0,.3l.1.17a.93.93,0,0,1,0,.45.51.51,0,0,1,.09.16v0s0,0,0,0,0,0,.05,0c.08.32.09.48.05.49l.07.07c0,.35.08.88.17,1.6h0s0,0,0,0a2.91,2.91,0,0,1,0,1.31c-.06,0-.07.12-.05.29a3,3,0,0,1-.59,1.27c-.16.16-.23.26-.21.32a2.29,2.29,0,0,1-1.11.82c-.83.11-1.26.08-1.31-.07a4,4,0,0,1-1.44-1.16,14.42,14.42,0,0,1-1.46-2.83h0L22,33.5h.05L22,33.42l-.08-.28a.25.25,0,0,0-.09-.13l0-.1s0,0-.05,0l0-.2v0c-.05-.18-.15-.46-.29-.85h0l-.06-.05a.32.32,0,0,0,0-.14.26.26,0,0,1-.07-.1h0s0,0-.05,0l-.14-.8-.1-.16a13.72,13.72,0,0,1-.26-2.33l0-.08c.07,0,.11-.25.1-.68.15-.63.28-1.11.37-1.41a2.49,2.49,0,0,1,1.11-1.22ZM22,28.22l0,.06a6.41,6.41,0,0,0,.13,1.84s0,0,.05,0l0,.2.18.62c.08.29.18.68.29,1.15,0,.05.07.08.07.11h0l.06.06.18.59c.06.18.12.26.16.25v.2l.16.55a.51.51,0,0,0,.09.16l0,.07.1.18h0a1.42,1.42,0,0,1,.16.25l0,.1.36.83,0,0a9.6,9.6,0,0,0,.91,1.77h-.05a5.13,5.13,0,0,0,.95,1.19q.66.45,1,.36a1.29,1.29,0,0,0,.77-.82q.36-.1.51-1.8h0s0,0-.05,0a8.76,8.76,0,0,1-.15-1.91l-.06-.07c0-.56-.08-.88-.1-1l-.6-2a7.15,7.15,0,0,1-.17-.75l-.08-.11a.85.85,0,0,0,0-.29.36.36,0,0,1-.07-.09l0,0a2.68,2.68,0,0,1-.23-.48l0-.29a2.26,2.26,0,0,0-.31-.59l0,0-.06-.07L26,28.19a0,0,0,0,1,0-.06L26,28.06a.88.88,0,0,1,0-.14,5.69,5.69,0,0,0-1.59-2.4c-.05-.15-.51-.15-1.4,0a1.87,1.87,0,0,0-.75,1.2l-.16.76C22.06,27.51,22,27.75,22,28.22Z" style="fill:#fff"/><path d="M28,23.39l.1,0a.22.22,0,0,0,.09-.08.61.61,0,0,1,.72.28.3.3,0,0,0,.09.13l.37,1.59a.27.27,0,0,1,.09.15l0,.08.15.21,0,.1.07.07a.65.65,0,0,0,0,.34s0,0,.05,0l0,.22.11.38a3.17,3.17,0,0,1,.08.53l.07.07,0,.24a.3.3,0,0,1,.08.12h0l.06.05.11.36c0,.13,0,.2,0,.22l.09.17.11.36a0,0,0,0,1,0,.06l.07.07.12.58a5.12,5.12,0,0,0,.19.5,7.79,7.79,0,0,0,.2.83l.18.45a1.12,1.12,0,0,0,0,.29,8.48,8.48,0,0,1,.4,1l.08.21h0l.18.41,0,.29c.06.14.1.26.13.35l.07.26a.27.27,0,0,0,.09.15,0,0,0,0,1,0,.06l.1.18v0a.07.07,0,0,1,0,.1,3.83,3.83,0,0,1,.4,1l0,0,.06,0,.16.55.18.45,2.67-1,.38.14c0,.12.07.17.1.16.1.37-.29.68-1.18.94l-1,.41-.08,0a3.34,3.34,0,0,1-.65.28A1.23,1.23,0,0,1,32,37.79a.3.3,0,0,1,0-.12l-.35-.7,0,0a.06.06,0,0,0-.06,0q-.09-.47-.15-.69l0-.06a.27.27,0,0,0-.09-.15l0-.08c-.07-.13-.12-.2-.15-.19v-.2l-.2-.7q0-.08-.09-.06V34.7l-.13-.43a3.49,3.49,0,0,0-.28-.72,1.76,1.76,0,0,0-.07-.41l0-.06a2.41,2.41,0,0,0-.2-.38h0l-.07-.07-.06-.24s0,0,0-.05l-.08-.09a.82.82,0,0,1,0-.14,2.61,2.61,0,0,1-.28-.63l-.06-.24s0,0,0-.05l-.07-.07,0-.08s0,0-.05,0a.32.32,0,0,1,0-.14l-.17-.45L29.51,30,29.45,30c-.06-.44-.4-1.79-1-4a.92.92,0,0,1,0-.24l-.07-.07a.3.3,0,0,1,0-.12,4.1,4.1,0,0,1-.21-.54v0a1.68,1.68,0,0,1-.06-.37.34.34,0,0,1-.09-.14H28l-.12-.17A.88.88,0,0,1,28,23.39Z" style="fill:#fff"/><path d="M33.63,21.76l.1,0a.22.22,0,0,0,.09-.08.61.61,0,0,1,.72.27.34.34,0,0,0,.09.14L35,23.7a.27.27,0,0,1,.09.15l0,.08.15.21,0,.09.07.08a.65.65,0,0,0,0,.34h0l0,.22.11.38a3,3,0,0,1,.09.52l.06.08,0,.24a.49.49,0,0,1,.08.12h0l.06.05.1.36c0,.12,0,.2,0,.21l.1.18.11.36s0,.05,0,.05l.06.08c0,.05.06.25.13.58a3,3,0,0,0,.19.49,7.54,7.54,0,0,0,.19.84l.18.45a1.68,1.68,0,0,0,0,.29,6.53,6.53,0,0,1,.39,1l.09.21h0l.19.41,0,.29c0,.14.09.25.12.35l.08.25a.27.27,0,0,0,.09.16,0,0,0,0,1,0,.06l.1.17v0c0,.05,0,.09,0,.1a4.06,4.06,0,0,1,.4,1h0l.06.06.16.54.18.46,2.67-1,.38.14c0,.12.06.17.09.16.11.37-.28.68-1.17.94l-1,.41-.08,0a4.53,4.53,0,0,1-.65.28,1.22,1.22,0,0,1-1.12-.07.23.23,0,0,1,0-.11l-.34-.71h0s0,0,0,0c-.06-.32-.12-.55-.16-.69v-.06a.49.49,0,0,0-.1-.16l0-.07c-.07-.13-.12-.2-.15-.19v-.2l-.2-.7s0-.08-.09-.06v-.09l-.12-.43a4.17,4.17,0,0,0-.28-.72,2.5,2.5,0,0,0-.07-.41l0-.06a3,3,0,0,0-.2-.38h0L35.86,31l-.07-.23a0,0,0,0,1,0-.05.26.26,0,0,1-.07-.1.24.24,0,0,1,0-.14,2.27,2.27,0,0,1-.28-.63l-.07-.23a0,0,0,0,1,0-.05l-.06-.07,0-.08s0,0,0,0a.32.32,0,0,1,0-.14l-.18-.45-.06-.37-.06-.05c-.07-.44-.41-1.79-1-4,0,0,0-.09,0-.24L33.94,24a.23.23,0,0,1,0-.11,5.71,5.71,0,0,1-.2-.54v0a1.68,1.68,0,0,1-.06-.37.34.34,0,0,1-.09-.14h0l-.12-.17A.9.9,0,0,1,33.63,21.76Z" style="fill:#fff"/><path d="M46.9,17.59l.46-.13a2.41,2.41,0,0,0,1.27,0,1.55,1.55,0,0,1,1.13.81c.09,0,.22.11.41.39a5.14,5.14,0,0,1,1,1.88h0l0,.05s0,.05,0,.05l0,.08v.09a.06.06,0,0,1,.08.05s0,0,0,.05l.1.18.09.32s0,0,0,0l.07.07.08.3a3.18,3.18,0,0,0,.28.65s0,0,0,0l.1.18.13.42a.31.31,0,0,0,.09.16l0,.08a.06.06,0,0,0,.06,0l0,.28L52.61,25a.35.35,0,0,0,.09.16q0,.29,0,.3l.1.18a.86.86,0,0,1,0,.44.39.39,0,0,1,.1.16v0s0,0,0,0a0,0,0,0,0,.06,0c.07.32.09.48,0,.49l.06.08c0,.34.08.87.17,1.6h0s0,0,0,0a3.24,3.24,0,0,1,0,1.31c-.06,0-.08.12-.06.29a3,3,0,0,1-.59,1.28c-.15.15-.22.25-.21.31a2.23,2.23,0,0,1-1.11.83c-.82.1-1.26.07-1.3-.08a3.85,3.85,0,0,1-1.44-1.16,14.9,14.9,0,0,1-1.47-2.83h.05l-.81-2.06h0l-.06-.07-.08-.28a.3.3,0,0,0-.09-.13l0-.1a0,0,0,0,0-.06,0v-.24c-.06-.19-.15-.47-.3-.86h0l-.07-.05a.24.24,0,0,0,0-.14.24.24,0,0,1-.07-.09l0,0a.06.06,0,0,0-.06,0l-.14-.8-.09-.16a14.48,14.48,0,0,1-.27-2.33l0-.08c.07,0,.1-.25.1-.67.15-.64.27-1.11.37-1.42A2.46,2.46,0,0,1,46.7,17.7Zm-.66,3.56,0,.06a6,6,0,0,0,.13,1.84s0,0,.05,0v.2l.18.62c.09.29.18.68.29,1.15a.39.39,0,0,1,.08.11l0,0,.06.05.17.59c.07.18.12.26.17.25v.2l.16.55a.51.51,0,0,0,.09.16l0,.07.09.18h0a1.79,1.79,0,0,1,.17.25l0,.1.36.83,0,0a9.51,9.51,0,0,0,.9,1.77h0a5.37,5.37,0,0,0,.94,1.2,1.37,1.37,0,0,0,1,.35,1.31,1.31,0,0,0,.77-.82q.36-.11.51-1.8h0a0,0,0,0,0-.06,0,9.09,9.09,0,0,1-.14-1.91L52,27.13a8,8,0,0,0-.1-1l-.59-2a7.15,7.15,0,0,1-.17-.75.29.29,0,0,1-.08-.11A1.19,1.19,0,0,0,51,23a.18.18,0,0,1-.07-.09l0,0a2.11,2.11,0,0,1-.23-.48l0-.28a2.64,2.64,0,0,0-.31-.6h0l-.07-.08-.08-.29a0,0,0,0,1,0-.06L50.25,21a.24.24,0,0,1,0-.14,5.73,5.73,0,0,0-1.6-2.4c0-.15-.51-.15-1.39,0a1.87,1.87,0,0,0-.75,1.2l-.17.76S46.27,20.68,46.24,21.15Z" style="fill:#fff"/><path d="M54.91,15.21a3.57,3.57,0,0,1,1.69,0,1.16,1.16,0,0,0,.39.23.63.63,0,0,0,.11.22.4.4,0,0,1-.33.37l-.16.05a1.49,1.49,0,0,1-.57-.14L56,16l-.64,0,0,.06s0,0-.05,0c-.33.09-.63.43-.92,1l-.18.72s0,0,0,0-.07.24,0,.69c-.08,0-.09.15,0,.33a.06.06,0,0,1,.06,0c-.07,0-.08.26,0,.7h0l.07.19v.16a.09.09,0,0,1,.11.06c-.06,0-.08.06-.06.13.17.63.22,1,.15,1a.19.19,0,0,1,0,.1v.18a0,0,0,0,0,.06,0v.21l.41,1.57.17.25H55l.06,0,0,.05s0,.05,0,.05l0,.08v.1a.29.29,0,0,1,.08.13h0l.07.08.11.38,0,.09a.13.13,0,0,1,.09.07l0,.06a.06.06,0,0,1,0,.06l.06.07.13.42c.08.21.23.56.44,1.06l0,0a2.78,2.78,0,0,1,.29.6h0l.06.07s0,0,0,0a6.57,6.57,0,0,1,.36.76h-.05c.74,1.27,1.4,1.83,2,1.67a.86.86,0,0,0,.72-.73,1.78,1.78,0,0,1,.16-.63,5.82,5.82,0,0,1-.1-.9s0,0-.05,0l-.06-.49a5.38,5.38,0,0,1-.31-.92l-.66-2.44-.34.1a5.22,5.22,0,0,0-1,.41c-.38.05-.62.05-.71,0a.06.06,0,0,1,0,.06c0-.06,0-.08-.09-.07v-.18l-.1-.18c.07,0,.1-.09.07-.22a0,0,0,0,1,.06,0c.17-.09.44-.21.81-.37v0a6.27,6.27,0,0,1,1.69-.65,0,0,0,0,0,.06,0s0-.05,0-.05c.24.11.39.24.43.4a.77.77,0,0,1,0,.32s.08.08.08.11h0l.07.07v.07s0,0,0,0l0,.08a0,0,0,0,1,0,.06.49.49,0,0,1,.16.2l.08.37c.07.25.08.39,0,.4l.06.08s0,0,0,.05a.46.46,0,0,1,.15.21l.08.32c.09.31.1.47,0,.49l.06.05a0,0,0,0,1,0,.06,2.67,2.67,0,0,1,.37,1,5.18,5.18,0,0,1,.07.56.06.06,0,0,0,.06,0,4.54,4.54,0,0,1,0,1.69,2.18,2.18,0,0,1-1.53,1.37c-1,.27-1.91-.17-2.81-1.32l-.3-.55s0,0,0-.05-.09,0-.11,0a.06.06,0,0,1,0-.06,4.66,4.66,0,0,1-.25-.47,0,0,0,0,0,0-.06c-.06,0-.09,0-.11-.06l0-.08c-.69-1.82-1.07-2.89-1.15-3.22L54.13,24a.37.37,0,0,0-.06-.14s0-.05,0-.05a5.25,5.25,0,0,0-.37-.95.38.38,0,0,0,0-.18,1.85,1.85,0,0,0-.11-.22h0s0,0-.05,0v-.21c0-.06-.1-.4-.24-1h0s0,0,0,0c-.05-.39-.07-.59,0-.6s0,0,0,0V20.3l-.14-.55a.37.37,0,0,1,0-.18L53,19.52a6.24,6.24,0,0,1,.28-2.9A2.16,2.16,0,0,1,54.91,15.21Z" style="fill:#fff"/><path d="M67,11.46h.14a.34.34,0,0,1,.14-.09,2.51,2.51,0,0,1,1.4.33,7.11,7.11,0,0,1,1.43,1.69c.12.39,0,.67-.47.82L69.08,14a8.36,8.36,0,0,0-.93-1.29A1,1,0,0,0,67,12.39,1.46,1.46,0,0,0,66,13.94c0,.47,0,.71,0,.72a0,0,0,0,0,.06,0L66,15l0,.08.52.77A9.79,9.79,0,0,0,67.88,17a15.06,15.06,0,0,1,2.69,1.51,5.7,5.7,0,0,1,1.87,2.41,1,1,0,0,0,.19.33c.21.84.36,1.39.43,1.64s0,.47,0,.48l.07.05a4.46,4.46,0,0,1-.45,2.31A3.69,3.69,0,0,1,71,27.05v0l-.08.07-.27.08a3.29,3.29,0,0,1-1.29-.09c-1.15-.65-1.82-1.3-2-1.93l0-.07s0,0,0-.05l-.17-.25a2.06,2.06,0,0,0,0-.7.8.8,0,0,1,.47-.44c.24-.07.42.1.53.49h0a.49.49,0,0,1,.08.12v.16a.48.48,0,0,1,.08.11l0,.08a3.32,3.32,0,0,0,1.58,1.48,1,1,0,0,0,.93,0h0s.05,0,.05,0A2,2,0,0,0,72,25a4.34,4.34,0,0,0,0-1.89L72,23,71.92,23a.35.35,0,0,1,0-.12l-.11-.22a.37.37,0,0,1,0-.18l-.06-.05a1.55,1.55,0,0,0,0-.29L71.65,22a.3.3,0,0,0,0-.12,2.84,2.84,0,0,0-.36-.68s0,0,0,0a4.68,4.68,0,0,0-.54-.81.45.45,0,0,0,0-.13l-.75-.7a17.85,17.85,0,0,0-2.85-1.8,3.31,3.31,0,0,1-1.6-1.42c-.07,0-.26-.27-.56-.89h0L65,15.36a.73.73,0,0,1,0-.28c-.06,0-.1,0-.11,0l0-.17s0,0,0,0l-.06-.05a.18.18,0,0,1,.07-.16l0-.06c0-.37,0-.56,0-.58s0,0,0,0a.75.75,0,0,1,0-.31.05.05,0,0,1-.08,0l0,0a2.84,2.84,0,0,0,.21-.71A2.91,2.91,0,0,1,67,11.46Z" style="fill:#fff"/><path d="M72.69,10.39l0,.08s0,0,0-.05l.23,0,.8-.24.37-.06A.25.25,0,0,1,74.3,10h.09a.26.26,0,0,1,.12-.07l.07,0a.29.29,0,0,1,.16-.09.77.77,0,0,1,.44.26q.06.53-.78.78h-.16c-.64.15-1,.26-1.24.31v0l0,.06-.68.2.06.19s0,0,0,0l.07.07,0,.19c0,.13,0,.2,0,.22a1,1,0,0,1,.17.25h0s0,0,0,0a.32.32,0,0,1,0,.14,1.85,1.85,0,0,0,.11.22l.06.37a2.39,2.39,0,0,1,.15.37h0s0,0,0,0a.22.22,0,0,1,0,.16,8.77,8.77,0,0,1,.32.94l.07.23.11.22a.35.35,0,0,0,0,.2,1.94,1.94,0,0,0,.25.53h0l.06.07a0,0,0,0,1,0,.06l.06,0,0,.29.16.39h0a.79.79,0,0,1,.18.29l0,.11.27-.08c.07,0,.1-.05.09-.08h.21l.17-.05a4.79,4.79,0,0,0,.53-.2l.08,0a2.23,2.23,0,0,1,.34-.15.46.46,0,0,1,.51.25c.07.24-.06.47-.39.71l-.29,0-.59.18-.26.12v0l-.29.17c0-.05,0-.08-.09-.06l0,.09,0,.15c0,.09,0,.12.08.12l0,.2.1.36a.3.3,0,0,0,.09.13.06.06,0,0,1,0,.06l.08.13c.17.69.29,1.15.36,1.39l.07.07,0,.08.11.19,0,.08c.07.13.11.2.13.19l0,.2.4,1.37a.37.37,0,0,0,.07.14.31.31,0,0,0,0,.16l.12.4.08.23,0,.14a10.34,10.34,0,0,0,1.58-.37h0a.46.46,0,0,0,.15-.09H78l.36-.11a1.39,1.39,0,0,0,.33-.14s0,0,0,0l.39-.16.51-.15a.56.56,0,0,1,.45.38c-.11.35-.24.55-.4.59,0,0-.07.08-.23.14H79.4l-.17.07-.23,0s0,0,0,0l-.2,0h0l-.22.09h-.12l-.16.07-.3.07-.08,0-.13,0-.33.12v0l-.08,0-.13,0a.39.39,0,0,1-.15,0l-.14.07-.18,0a.43.43,0,0,1-.18.08v0s0,0,0,0l-.2,0-.13,0c-.15.06-.21.12-.2.18h-.2l-.12.13a.47.47,0,0,0-.23,0v-.05s0,0,0-.05a.55.55,0,0,1-.17-.27l-.39-1.33a0,0,0,0,1,0-.06l-.06-.07,0-.15s0,0,0-.05l-.06-.07,0-.07s0,0,0-.05L74.68,23l-.6-2.07a.22.22,0,0,1,0-.16L74,20.67a.31.31,0,0,0,0-.19s0,0,0,0l0-.22-.16-.57-.16-.39h0l-.07-.07v-.07s0,0,0-.05L73.53,19l-.48-1.65a.46.46,0,0,0-.07-.14v-.09a1.41,1.41,0,0,0-.14-.26.22.22,0,0,1,0-.16,19.89,19.89,0,0,1-.67-2l-.11-.4-.1-.18h0s0,0,0,0,0-.09,0-.1c-.18-.51-.3-.89-.38-1.15l-.22-.78s0,0,0,0L71.32,12a2.21,2.21,0,0,1-.07-.4,1.14,1.14,0,0,1-.12-.26,1.24,1.24,0,0,1,.66-.63v0l.12-.08.07,0a.35.35,0,0,1,.16-.09h.16A1.09,1.09,0,0,1,72.69,10.39Z" style="fill:#fff"/><path d="M88.56,5.1c.2,0,.32.08.37.24a.07.07,0,0,1,.1,0h0a.68.68,0,0,1,.15.21h0l.06.07.12.4.19.25,0,.19L90,7.77h0l.07.07.12.43v.09h0v.32l.1,0,0,.1v0l.1.18-.07.06a3.17,3.17,0,0,1,.35.89l.11.38a.05.05,0,0,1,0,.05s0,0,0,0v.2l.06.19L91,11h0l.06.08.31,1.05a0,0,0,0,1,0,.06l.07.07,0,.06,0,.1.09,0,0,.28.11.22a.43.43,0,0,0,0,.16.3.3,0,0,1,.08.12s0,0,0,0l.12.26.12.38a.06.06,0,0,1,0,.06s0,0,0,0c0,.19,0,.29,0,.3l.06.07s0,0,0,0l.1.2.1.34.12.26h0l.07.08.18.63s0,0,0,0,.12.23.24.49H92.6l.07.07c.15.48.28.88.38,1.22v0l.06.07-.05.06.05.08.31,1.08a2.88,2.88,0,0,0,.17.43c.05.16,0,.3-.24.44,0,.08-.11.17-.4.25l-.11,0q-.31,0-.45-.51v0s0,0,0,0l-.19-.34a2.6,2.6,0,0,0-.13-.76c0-.09-.11-.33-.26-.73h0l-.06-.07-.24-.83a.3.3,0,0,0-.09-.13.35.35,0,0,0,0-.18l0-.07a.27.27,0,0,0-.09-.15.22.22,0,0,0,0-.16.49.49,0,0,1-.08-.12h0L91.28,16s0,0,0,0l-.06-.07s0,0,0-.05a1.22,1.22,0,0,1-.19-.34h0s0,0,0,0L91,15.07l0,0s0-.06-.1,0l0-.23-.11-.22h0a0,0,0,0,0-.06,0v-.2l-.18-.59a.43.43,0,0,1,0-.16s0,0,0,0v-.21l0-.12a2.44,2.44,0,0,0-.14-.33l0-.09a3,3,0,0,1-.17-.41L90.08,12c0-.09,0-.12-.08-.12v-.2l-.34-1.14a.22.22,0,0,0-.08-.13l0-.1-.11-.22h0L89.45,10l0-.06s0-.05,0-.05l-.06-.08,0-.08a.22.22,0,0,1,0-.16.46.46,0,0,1-.15-.21l0-.08s0-.05,0-.06l-.06,0s0,0,0-.05l-.06-.07L89,8.47s0,0,0-.05l-.07-.07L88.8,8l-.08-.21h0l0-.06v0s0,0,0,0a.77.77,0,0,1-.07-.19l-.09,0a6,6,0,0,1-.28,1.23,6.78,6.78,0,0,0-.34,1.74,1.24,1.24,0,0,0-.31.26l-.11,0s0,0,0,0l-.08.07H87.3c-.35,0-.55-.07-.59-.21S85.88,10,84.65,9c0,0-.13-.07-.28-.26h0v0q.6,1.76.87,2.43h0l0,.06v.09a.48.48,0,0,1,.07.16s0,0,0,0,0,0,0,0c.09.36.16.62.21.79l.18.63a0,0,0,0,1,0,.06s.07.06.07.09v.1a.22.22,0,0,1,.08.13v0s0,0,0,.05a0,0,0,0,0,.06,0,3.8,3.8,0,0,0,.11.86,2.06,2.06,0,0,0,.23.48,0,0,0,0,1,0,.06.22.22,0,0,0,.08.09c0,.14.13.51.28,1.11A12.19,12.19,0,0,0,87,17.34a1,1,0,0,0,0,.39.22.22,0,0,1,.08.09h0a0,0,0,0,0,.06,0V18c0,.05,0,.06.06.06s0,.23,0,.24a3.83,3.83,0,0,0,.34.84.88.88,0,0,0,0,.14L88.11,21c0,.16,0,.31-.24.46,0,.08-.1.14-.28.2l-.13,0c-.23,0-.38,0-.43-.24h0L87,21.37l-.08-.28a.29.29,0,0,0-.08-.13.51.51,0,0,0,0-.18l-.07-.07a.17.17,0,0,0,0-.12s0-.13-.13-.31v-.16A4.11,4.11,0,0,1,86.17,19l0,0s-.07-.06-.07-.09a3.07,3.07,0,0,1-.08-.41s0,0,0,0l0-.2-.27-.93a.37.37,0,0,0-.09-.16.22.22,0,0,0,0-.16l-.09-.16.08,0a1.28,1.28,0,0,1-.19-.34v-.09l-.1-.22,0,0L85.31,16a.17.17,0,0,0,0-.12.33.33,0,0,1-.08-.11h0l-.06-.05,0-.13a0,0,0,0,1,0-.06l-.06-.05L85,15c0-.07,0-.11,0-.12l-.1-.18a20.72,20.72,0,0,1-.5-2l-.11-.22a.26.26,0,0,0,0-.12.23.23,0,0,1-.08-.11,0,0,0,0,1,0-.06l-.1-.17L84,11.34l-.1-.18h0a.18.18,0,0,1-.07-.09,7.72,7.72,0,0,0-.34-.84l0,0a2.26,2.26,0,0,1-.25-.61l-.08-.3a.27.27,0,0,0-.09-.15.43.43,0,0,0,0-.16L83,8.87l.06-.13c-.06,0-.09,0-.11-.06s0,0,0,0l-.07-.07v0l0-.16h-.09a0,0,0,0,1,0-.06l-.28-.63c0-.46.15-.73.41-.8,0,0,0-.06.09-.08l.17,0c.24-.07.49.12.76.56.07,0,.14,0,.2.15s.1,0,.11.06,0,0,0,.05c.27.15.9.59,1.87,1.31.22.17.43.32.64.46l0,.08L87,9.37a7.09,7.09,0,0,1,.53-1.87c.31-1.33.48-2,.53-2.13A2.69,2.69,0,0,1,88.56,5.1Z" style="fill:#fff"/><path d="M93.2,4.42l0,.07s0,0,0,0l.22,0,.81-.23a2.45,2.45,0,0,1,.37-.07A.29.29,0,0,1,94.8,4l.1,0A.3.3,0,0,1,95,4l.07,0a.51.51,0,0,1,.16-.09.83.83,0,0,1,.44.26q.06.52-.78.78h-.16l-1.24.31v0l0,.06-.68.2.06.19s0,0,0,0l.06.08.06.19q.06.18,0,.21a1.79,1.79,0,0,1,.17.25h0a0,0,0,0,0,.06,0,.36.36,0,0,1,0,.14s0,.09.11.22l.06.37a1.73,1.73,0,0,1,.16.37h0s0,0,.05,0a.22.22,0,0,1,0,.16c.14.36.24.67.32.94l.07.23.11.22a.39.39,0,0,0,0,.21,1.89,1.89,0,0,0,.25.52h0l.07.08s0,0,0,.05l.06,0,0,.29.16.39h0a.66.66,0,0,1,.17.29l0,.11.28-.08c.07,0,.1,0,.09-.08h.2l.17,0a5.71,5.71,0,0,0,.54-.2l.08,0a1.29,1.29,0,0,1,.34-.14q.27-.09.51.24c.07.24-.06.47-.39.71l-.29,0-.59.18-.26.12v0l-.3.17c0-.05,0-.07-.08-.06l0,.1,0,.14c0,.09.05.13.08.12v.2l.11.36a.2.2,0,0,0,.08.13,0,0,0,0,1,0,.06l.09.13c.17.69.29,1.15.36,1.39l.06.07,0,.08.1.2,0,.07c.07.13.11.2.12.19l0,.2.4,1.37a1.16,1.16,0,0,0,.06.15.49.49,0,0,0,0,.15l.11.4.09.23,0,.14a10.41,10.41,0,0,0,1.59-.37h0a.37.37,0,0,0,.16-.09.22.22,0,0,0,.16,0l.36-.11a1.85,1.85,0,0,0,.33-.14.05.05,0,0,1,0,0l.39-.16.51-.14a.57.57,0,0,1,.45.37c-.11.35-.25.55-.4.6,0,0-.07.07-.24.13H99.9l-.16.07-.24,0s0,0,0,0l-.2,0h0l-.23.09h-.11l-.16.07-.3.07-.08,0-.14,0-.33.12v0l-.08,0-.13,0a.41.41,0,0,1-.15,0,.61.61,0,0,1-.14.07l-.18,0a.84.84,0,0,1-.18.07v0s0,0,0,0l-.19,0-.13,0c-.15.05-.22.11-.2.17h-.2l-.13.13a.44.44,0,0,0-.22,0v0a0,0,0,0,1,0-.06.55.55,0,0,1-.17-.27l-.39-1.33s0,0,0,0l-.07-.08,0-.14a0,0,0,0,1,0-.06l-.07-.07,0-.06a.06.06,0,0,1,0-.06L95.19,17l-.61-2.07a.43.43,0,0,1,0-.16l-.06-.07a.38.38,0,0,0,0-.18s0,0-.05,0l0-.23-.16-.57-.16-.39h0l-.07-.07,0-.06a0,0,0,0,1,0-.06L94,13l-.48-1.65a.61.61,0,0,0-.07-.14v-.09a1.13,1.13,0,0,0-.15-.26.43.43,0,0,1,0-.16c-.21-.53-.43-1.18-.66-2l-.12-.4-.09-.18h0a0,0,0,0,0-.06,0c0-.05,0-.09,0-.1-.18-.51-.31-.89-.38-1.14l-.23-.79s0,0,0,0L91.83,6a1.59,1.59,0,0,1-.07-.4,2.08,2.08,0,0,1-.13-.26,1.25,1.25,0,0,1,.67-.63v0s.09-.08.12-.08l.07,0a.35.35,0,0,1,.16-.09h.16A.87.87,0,0,1,93.2,4.42Z" style="fill:#fff"/><path d="M98.14,2.36a4.47,4.47,0,0,1,2.27-.07v0l.08-.05a2.74,2.74,0,0,0,.82.38,5.34,5.34,0,0,1,1.09,1.06,5.48,5.48,0,0,1,1.17,1.91.15.15,0,0,0,0,.11l.09,0a0,0,0,0,1,0,.06,4.16,4.16,0,0,1,.22.57l0,.07a2.79,2.79,0,0,1-.43,2.85,0,0,0,0,0-.06,0c0,.08-.21.34-.71.76,0,.06-.12.16-.41.33l0,0c-.07.06-.11.1-.1.12a19.48,19.48,0,0,1,2.42,2,31.33,31.33,0,0,1,2.85,2.4,1.47,1.47,0,0,0,.35.41l0,.08a0,0,0,0,1,0,.06l.06.05c0,.19-.2.33-.56.43l0,0c-.24.07-.58-.21-1-.82a3,3,0,0,1-.68-.61c-.51-.35-1.59-1.25-3.22-2.7a4.23,4.23,0,0,0-.55-.34l0,.09a3.35,3.35,0,0,1,.16.41.32.32,0,0,1,0,.14l.11.22.12.42a.25.25,0,0,1,0,.17l.07.07,0,.09a.34.34,0,0,1,.09.14s0,0,0,0l.06.08,0,.1a0,0,0,0,1,0,.06s0,0,.06,0v.2c.23.88.4,1.52.52,1.93l.1.18a0,0,0,0,1,0,.06l.39.87a.52.52,0,0,1-.11.35l-.21.06c0,.08,0,.13,0,.14s-.09-.09-.21-.07l-.07.06c-.2.06-.37-.1-.5-.47v-.09a.49.49,0,0,1-.08-.12s0-.05,0-.05l-.2-.4a0,0,0,0,1,0-.06l-.18-.45-.17-.59s0,0,0,0l-.07-.06v0s0,0,0,0l-.06-.07,0-.11s0-.05,0-.05,0,0-.05,0l0-.29-.16-.55,0-.24a.39.39,0,0,1-.1-.18c0-.12,0-.18,0-.18l-.11-.25-.28-.95a5.14,5.14,0,0,1-.12-.56.18.18,0,0,1-.07-.09l0-.1-.07-.07,0-.07a.49.49,0,0,1-.08-.12h0l-.07-.07-.31-1.06s0,0,0,0l-.07-.08,0-.09a.31.31,0,0,1-.08-.1h0L100,9.39v0a0,0,0,0,1,0-.06L100,9.22l-.3-1A.31.31,0,0,0,99.59,8l0-.1a2.42,2.42,0,0,0-.24-.5.36.36,0,0,0,0-.18l-.1-.18h0l-.18-.34,0-.07A2.1,2.1,0,0,0,98.87,6l0-.1a0,0,0,0,0-.06,0,.26.26,0,0,1,0-.12,5.78,5.78,0,0,0-.24-.61V5.11c-.16-.43-.25-.66-.27-.7a.26.26,0,0,0,0-.12l-.2-.37,0,0s-.07-.06-.07-.09v-.1a1.2,1.2,0,0,1-.19-.33h0l-.06-.06-.13-.44a.64.64,0,0,1,.31-.5Zm1,.77c0,.06,0,.09,0,.1l.06,0,0,.12a0,0,0,0,1,0,.06l.06,0v0a0,0,0,0,1,0,.06l.07.07.11.38a.35.35,0,0,0,.09.16.43.43,0,0,0,0,.16l.11.22s0,0,0,.05l.1.18.13.44.08.19h0l.05.08s0,0,0,0l0,.06s0,0,0,0l.08.18c.15.52.37,1.18.67,2,0,0,0,0,0,0l.1.18.13.47a4.79,4.79,0,0,0,.2.53.4.4,0,0,0,0,.21l.06.07v.1a.17.17,0,0,0,.07.09l0,.24,0,.09a3.33,3.33,0,0,0,1.24-1,1.93,1.93,0,0,0,.58-1.31s0,0,0,0,.06-.27-.08-.73l-.08-.28a.89.89,0,0,0-.21-.4l0-.09c-.62-1.26-1-1.86-1.21-1.8a2.54,2.54,0,0,0-1.63-1.11Z" style="fill:#fff"/><path d="M106.61.51l0,.07s0,0,0,0l.22,0,.81-.23a2.45,2.45,0,0,1,.37-.07.29.29,0,0,1,.13-.08l.1,0a.3.3,0,0,1,.12-.08l.07,0a.51.51,0,0,1,.16-.09.83.83,0,0,1,.44.26c0,.36-.22.61-.78.78h-.16l-1.24.31v0l0,.06-.68.2.06.19s0,.05,0,.05l.07.08,0,.19q.06.18,0,.21a1.79,1.79,0,0,1,.17.25h0a0,0,0,0,0,.06,0,.36.36,0,0,1,0,.14l.11.22.07.37a2.39,2.39,0,0,1,.15.37h0s0,0,0,0a.22.22,0,0,1,0,.16c.14.36.24.67.32.94l.07.23.11.22a.38.38,0,0,0,0,.21,1.89,1.89,0,0,0,.25.52h0l.07.08s0,0,0,0l.06.05,0,.29.16.39h0a.66.66,0,0,1,.17.29l0,.11.28-.08c.07,0,.1,0,.09-.08h.2l.17-.05a5.71,5.71,0,0,0,.54-.2l.08,0a1.75,1.75,0,0,1,.34-.14c.19-.06.35,0,.51.24s-.06.47-.39.71l-.29,0-.59.17-.26.12V8l-.3.18c0-.06,0-.08-.08-.07l0,.1,0,.14c0,.09,0,.13.08.12v.2l.11.36a.24.24,0,0,0,.08.13,0,0,0,0,1,0,.06l.09.14q.25,1,.36,1.38l.06.07,0,.08.1.2,0,.07c.07.14.11.2.13.2l0,.19.4,1.37a1.16,1.16,0,0,0,.06.15.49.49,0,0,0,0,.15l.11.4.09.23L110,14a10.94,10.94,0,0,0,1.58-.38h0a.29.29,0,0,0,.16-.09.22.22,0,0,0,.16,0l.36-.11a1.59,1.59,0,0,0,.33-.14,0,0,0,0,1,0,0l.39-.16.51-.14a.55.55,0,0,1,.45.37c-.11.35-.24.55-.4.6,0,0-.07.07-.23.13h-.09l-.17.07-.24,0s0,0,0,0l-.2,0h0l-.23.09h-.11l-.16.07-.3.07-.08,0-.13,0-.34.12v0l-.08,0-.13,0a.27.27,0,0,1-.15,0l-.14.07-.18,0a.84.84,0,0,1-.18.07v0s0,0,0,0l-.2,0-.13,0c-.15.06-.22.11-.2.17h-.2l-.12.13a.47.47,0,0,0-.23,0v0a0,0,0,0,1,0-.06.55.55,0,0,1-.17-.27l-.39-1.33s0-.05,0-.05l-.07-.08,0-.14a0,0,0,0,1,0-.06l-.07-.07v-.06a0,0,0,0,1,0-.06l-.07-.07L108,11a.3.3,0,0,1,0-.16l-.06-.07a.38.38,0,0,0,0-.18s0,0,0,0l0-.23-.16-.57-.16-.39h0l-.07-.07,0-.06a.06.06,0,0,1,0-.06l-.06-.07L107,7.48a.61.61,0,0,0-.07-.14V7.25a1.41,1.41,0,0,0-.14-.26.29.29,0,0,1,0-.16c-.21-.53-.43-1.18-.66-2l-.12-.4-.09-.18h0a0,0,0,0,0-.06,0s0-.09,0-.1c-.18-.51-.3-.89-.38-1.14l-.23-.79a.05.05,0,0,1,0-.05l-.06-.07a1.59,1.59,0,0,1-.07-.39,1.41,1.41,0,0,1-.12-.27,1.24,1.24,0,0,1,.66-.63v0s.09-.08.12-.08l.07,0a.35.35,0,0,1,.16-.09h.16A.93.93,0,0,1,106.61.51Z" style="fill:#fff"/></g></svg>